<?xml version="1.0" encoding="UTF-8" standalone="no"?>
<svg
   xmlns:dc="http://purl.org/dc/elements/1.1/"
   xmlns:cc="http://creativecommons.org/ns#"
   xmlns:rdf="http://www.w3.org/1999/02/22-rdf-syntax-ns#"
   xmlns:svg="http://www.w3.org/2000/svg"
   xmlns="http://www.w3.org/2000/svg"
   viewBox="0 0 2000 2000"
   height="2000"
   width="2000"
   xml:space="preserve"
   id="svg2"
   version="1.1"><metadata
     id="metadata8"><rdf:RDF><cc:Work
         rdf:about=""><dc:format>image/svg+xml</dc:format><dc:type
           rdf:resource="http://purl.org/dc/dcmitype/StillImage" /></cc:Work></rdf:RDF></metadata><defs
     id="defs6"><clipPath
       id="clipPath18"
       clipPathUnits="userSpaceOnUse"><path
         id="path16"
         d="M 0,1500 H 1500 V 0 H 0 Z" /></clipPath></defs><g
     transform="matrix(1.3333333,0,0,-1.3333333,0,2000)"
     id="g10"><g
       id="g12"><g
         clip-path="url(#clipPath18)"
         id="g14"><g
           transform="translate(700.8652,840.9351)"
           id="g20"><path
             id="path22"
             style="fill:#c24c54;fill-opacity:1;fill-rule:nonzero;stroke:none"
             d="m 0,0 -14.051,-31.738 c -0.814,-1.833 -2.677,-2.982 -4.684,-2.866 -9.323,0.495 -18.007,1.164 -25.949,1.935 -4.189,0.407 -5.891,5.571 -2.778,8.393 9.789,8.829 23.156,19.476 40.509,30.327 C -2.923,8.567 1.92,4.334 0,0 m -143.9,87.026 c 3.477,0 6.284,-4.305 6.284,-9.6 0,-5.309 -2.807,-9.6 -6.284,-9.6 -3.461,0 -6.284,4.291 -6.284,9.6 0,5.295 2.823,9.6 6.284,9.6 m 30.852,3.535 c 3.476,0 6.283,-4.306 6.283,-9.615 0,-5.294 -2.807,-9.585 -6.283,-9.585 -3.462,0 -6.269,4.291 -6.269,9.585 0,5.309 2.807,9.615 6.269,9.615 m 30.953,10.08 c 3.476,0 6.283,-4.291 6.283,-9.6 0,-5.295 -2.807,-9.585 -6.283,-9.585 -3.462,0 -6.27,4.29 -6.27,9.585 0,5.309 2.808,9.6 6.27,9.6 m 29.833,15.768 c 3.462,0 6.283,-4.306 6.283,-9.6 0,-5.295 -2.821,-9.601 -6.283,-9.601 -3.462,0 -6.284,4.306 -6.284,9.601 0,5.294 2.822,9.6 6.284,9.6 m 29.833,17.905 c 3.462,0 6.269,-4.305 6.269,-9.6 0,-5.295 -2.807,-9.6 -6.269,-9.6 -3.477,0 -6.284,4.305 -6.284,9.6 0,5.295 2.807,9.6 6.284,9.6 m 29.818,18.313 c 3.462,0 6.284,-4.291 6.284,-9.6 0,-5.295 -2.822,-9.6 -6.284,-9.6 -3.462,0 -6.284,4.305 -6.284,9.6 0,5.309 2.822,9.6 6.284,9.6 M 336.702,76.466 c 0.262,8.437 -1.062,20.349 -8.48,35.099 -0.96,1.891 -3.739,1.672 -4.35,-0.349 -1.789,-5.891 -4.669,-12.989 -9.352,-20.306 -2.72,-4.276 -5.586,-7.884 -8.306,-10.895 -1.979,-2.167 -2.851,-5.119 -2.386,-8.015 3.346,-20.319 3.463,-43.898 -11.462,-55.04 -0.553,-0.421 -1.541,-0.96 -2.196,-1.207 -50.037,-18.88 -97.354,-31.288 -140.67,-39.157 -2.109,-0.392 -4.073,1.222 -4.116,3.375 l -0.525,23.098 c -0.029,1.135 -0.96,1.949 -1.992,1.949 -0.305,0 -0.626,-0.073 -0.931,-0.232 -17.397,-9.077 -29.629,-18.924 -35.855,-24.481 -0.393,-0.349 -0.64,-0.844 -0.669,-1.382 l -0.029,-0.567 -0.277,-5.556 c -0.101,-1.702 -1.396,-3.113 -3.097,-3.317 -6.59,-0.771 -13.063,-1.44 -19.419,-2.022 0,0 0.014,0 0.014,0.03 0.597,1.032 20.015,34.56 77.529,69.178 l 0.014,0.015 c 21.629,14.545 47.07,28.364 76.088,38.706 1.498,0.524 2.109,2.283 1.294,3.651 -6.924,11.433 -10.298,23.971 -11.752,30.851 -0.276,1.309 -1.527,2.168 -2.851,1.935 -17.193,-2.982 -44.35,-8.131 -75.972,-15.681 L 108.583,86.255 C 99.113,83.637 89.47,80.83 79.768,77.805 79.187,77.63 78.706,77.193 78.488,76.612 L 66.153,44.292 c -0.611,-1.571 0.903,-3.143 2.502,-2.59 10.211,3.506 21.048,6.793 32.568,9.76 3.97,1.033 7.811,-2.08 7.592,-6.182 -0.043,-0.945 -0.305,-1.832 -0.742,-2.633 -0.435,-0.799 -1.061,-1.498 -1.832,-2.036 -19.476,-13.6 -45.004,-33.687 -62.939,-56.175 -4.625,-5.803 -8.757,-11.782 -12.145,-17.832 -0.713,-1.281 -2.066,-2.066 -3.521,-2.081 l -0.101,-0.014 c -2.924,-0.03 -4.974,2.894 -3.927,5.629 l 24.349,63.811 14.647,38.357 7.214,18.909 c 0.481,1.266 -0.276,2.633 -1.599,2.91 -8.596,1.818 -15.418,5.323 -20.073,8.349 -1.135,0.742 -2.647,0.291 -3.186,-0.931 L 26.982,60.932 c -0.509,-1.15 -1.455,-2.051 -2.632,-2.517 -51.245,-20.349 -98.082,-46.72 -122.751,-80.03 -1.149,-1.556 -3.142,-2.269 -5.018,-1.789 h -0.044 c -0.771,0.189 -1.469,0.568 -2.051,1.091 -36.044,32.044 -99.856,32.029 -118.401,31.288 -2.895,-0.131 -5.251,2.298 -5.003,5.178 3.17,36.757 43.214,45.978 53.047,47.695 1.324,0.233 2.677,-0.102 3.738,-0.916 49.95,-38.619 127.55,11.273 139.129,21.978 5.891,5.455 30.066,20.902 52.597,34.881 7.491,4.639 11.418,13.279 10.124,22.007 -1.28,8.64 -0.669,20.087 4.727,34.386 1.047,2.821 -1.818,5.498 -4.538,4.218 -32.262,-15.186 -71.507,-34.822 -100.408,-53.005 -58.445,-36.771 -100.511,-19.694 -147.057,-34.443 -46.531,-14.749 -50.4,-93.936 -33.367,-112.569 17.033,-18.633 191.217,-55.782 255.813,-54.531 64.597,1.236 233.283,20.102 288.658,24.742 41.804,3.491 38.474,42.386 34.327,61.237 -1.498,6.778 -1.163,13.847 1.106,20.422 8.364,24.189 7.273,32.335 7.724,46.211" /></g><g
           transform="translate(775.6113,1009.6084)"
           id="g24"><path
             id="path26"
             style="fill:#c24c54;fill-opacity:1;fill-rule:nonzero;stroke:none"
             d="m 0,0 c 6.645,6.005 13.19,7.035 19.42,8.906 4.555,1.368 9.463,-0.473 12.04,-4.472 3.728,-5.787 7.81,-8.131 8.553,-14.67 1.871,-16.406 -20.713,-29.19 -26.184,-30.979 -0.842,-0.27 -2.525,-0.797 -3.727,0.023 -2.617,1.788 0.413,7.688 -2.127,9.83 -2.413,2.044 -6.915,-1.796 -10.365,0.804 -0.277,0.21 -1.728,1.3 -1.863,2.924 -0.316,3.878 7.267,6.177 6.794,8.515 -0.474,2.36 -8.328,0.887 -10.244,4.239 C -9.59,-11.581 -5.125,-4.629 0,0 m 20.548,127.425 c 0.112,0.91 0.653,1.714 1.466,2.142 3.547,1.864 8.687,4.029 15.174,5.148 4.169,0.714 7.988,0.842 11.265,0.677 2.593,-0.128 3.614,-3.42 1.563,-5.006 -4.066,-3.156 -8.771,-7.68 -12.828,-13.941 -2.842,-4.389 -4.728,-8.628 -5.991,-12.295 -0.744,-2.165 -3.66,-2.563 -4.945,-0.661 -2.007,2.961 -4.111,7.034 -5.223,12.159 -1.008,4.698 -0.865,8.801 -0.481,11.777 m 48.46,-5.749 c 19.743,15.016 42.62,14.633 49.805,14.565 78.988,-0.729 73.636,-85.286 68.436,-118.707 -0.805,-5.148 -4.118,-9.567 -8.868,-11.724 -6.81,-3.097 -15.355,-6.358 -25.417,-8.846 -11.988,-2.961 -33.926,-7.846 -60.253,-1.901 -21.922,4.952 -38.479,16.398 -49.609,26.492 -3.096,2.818 -4.96,6.741 -5.119,10.92 v 0.082 c -0.533,14.828 -2.314,63.784 31.025,89.119 m 115.077,18.721 c 2.135,1.248 4.637,2.503 7.516,3.593 5.561,2.104 10.649,2.863 14.602,3.096 1.481,0.082 2.796,-0.977 2.961,-2.458 0.489,-4.208 0.639,-9.837 -0.616,-16.271 -1.293,-6.628 -3.66,-12.032 -5.96,-16.075 -1.21,-2.135 -4.366,-1.834 -5.11,0.503 -1.293,4.059 -3.285,8.816 -6.412,13.723 -2.479,3.893 -5.14,7.043 -7.575,9.523 -1.27,1.3 -0.97,3.442 0.594,4.366 m 33.339,-179.921 c 0.804,-6.516 0.398,-16.241 -3.646,-17.767 -3.471,-1.307 -7.312,4.284 -10.806,2.639 -3.774,-1.774 -2.421,-9.778 -4.984,-10.327 -2.697,-0.586 -5.486,8.057 -8.95,7.606 -2.954,-0.376 -3.239,-6.922 -5.561,-7.08 -2.668,-0.188 -5.645,8.23 -7.186,15.069 -1.218,5.404 -2.277,13.099 -1.428,22.734 0.128,1.383 0.917,2.63 2.119,3.33 4.195,2.435 12.822,7.673 19.225,13.257 1.451,1.27 3.585,1.42 5.171,0.331 0.008,-0.008 0.016,-0.016 0.03,-0.016 13.46,-9.304 15.648,-26.822 16.016,-29.776 m -67.579,5.622 c -21.803,-1.954 -66.987,-4.63 -94.959,5.689 0.038,0.075 0.075,0.158 0.113,0.233 3.321,6.989 11.333,10.371 18.668,7.869 25.756,-8.779 53.18,-6.599 68.624,-4.164 4.051,0.639 7.861,-1.157 10.056,-4.231 1.525,-2.157 0.128,-5.163 -2.502,-5.396 m -179.629,-8.305 c 0.729,-1.413 1.03,-2.563 1.18,-2.878 0.91,-1.947 2.044,-3.833 3.419,-5.644 l 0.016,-0.016 c 1.977,-1.968 21.817,-21.314 38.359,-16.564 8.305,2.383 12.784,3.615 18.548,8.064 2.3,1.774 5.637,-0.029 5.487,-2.931 l -0.33,-6.47 -0.024,-0.354 30.964,5.833 -0.015,0.698 -0.217,9.861 c -0.046,2.247 2.021,3.93 4.208,3.427 21.021,-4.863 52.112,-9.147 79.506,-1.383 h 0.008 c 0.233,0.03 4.104,0.459 5.644,-3.277 0.135,-0.518 0.286,-1.045 0.451,-1.586 l 0.008,-0.007 c 1.202,-4.028 3.013,-8.718 5.771,-13.649 4.758,-8.507 9.116,-16.052 18.24,-20.065 13.491,-5.938 27.207,0.51 29.679,1.675 4.442,2.09 7.711,4.66 9.875,6.637 4.059,4.389 15.835,18.307 16.482,38.321 0,0 4.141,21.419 -16.729,46.033 -3.728,4.396 -5.758,9.98 -5.765,15.744 -0.007,2.571 0.031,4.81 0.076,6.659 0.443,17.369 4.704,31.144 4.215,40.794 -0.158,3.097 0.376,6.193 1.586,9.041 20.12,47.235 10.951,77.192 4.021,90.51 -2.705,5.192 -8.207,8.319 -14.062,8.116 -24.568,-0.841 -40.553,-10.739 -48.737,-17.556 -4.202,-3.51 -10.026,-4.404 -15.084,-2.315 -29.453,12.145 -55.224,1.954 -66.903,-4.366 -4.352,-2.36 -9.47,-2.773 -14.219,-1.398 -23.441,6.809 -44.139,-1.563 -54.511,-7.245 C 6.742,138.969 3.758,134.212 3.48,128.943 2.556,111.334 7.471,97.003 11.649,88.24 14.543,82.152 15.174,75.253 13.378,68.759 10.5,58.373 10.875,49.407 12.153,42.696 12.521,40.757 12.206,38.825 11.349,37.172 L 11.341,37.164 C 8.508,35.293 5.832,33.437 3.314,31.588 -10.018,21.795 -21.096,13.46 -27.98,-0.428 c -10.228,-20.638 -3.675,-38.78 -2.803,-40.088 0.045,-0.067 0.503,-0.729 0.999,-1.691" /></g><g
           transform="translate(854.1689,1058.1196)"
           id="g28"><path
             id="path30"
             style="fill:#c24c54;fill-opacity:1;fill-rule:nonzero;stroke:none"
             d="m 0,0 c 0.045,-1.714 4.817,-1.375 8.207,-5.517 2.556,-3.126 3.998,-8.402 1.834,-12.874 -0.301,-0.631 -2.165,-4.486 -5.937,-5.373 -5.892,-1.383 -10.973,5.779 -12.303,4.667 -1.285,-1.068 1.262,-9.5 7.921,-12.589 7.583,-3.524 15.632,2.157 16.113,2.511 1.909,-1.09 16.707,-9.229 27.74,-2.526 6.779,4.112 10.139,12.604 8.905,13.739 -0.976,0.894 -4.449,-3.164 -12.73,-5.517 -6.877,-1.954 -10.229,-0.789 -11.236,-0.391 -0.925,0.361 -3.96,1.556 -5.69,4.578 -2.494,4.374 -1.096,10.356 1.797,13.798 5.576,6.621 16.609,3.818 16.827,5.637 C 41.681,2.104 28.935,6.884 14.716,5.374 7.29,4.584 -0.053,2.126 0,0" /></g><g
           transform="translate(844.3477,1081.77)"
           id="g32"><path
             id="path34"
             style="fill:#c24c54;fill-opacity:1;fill-rule:nonzero;stroke:none"
             d="M 0,0 C 6.636,-0.842 12.389,3.693 13.505,9.842 13.089,9.771 12.651,9.73 12.216,9.73 c -4.21,0 -7.63,3.419 -7.63,7.63 0,2.181 0.924,4.16 2.394,5.55 C 5.794,23.498 4.505,23.894 3.155,24.066 -4.778,25.061 -11.454,18.385 -10.46,10.451 -9.771,5.043 -5.407,0.68 0,0" /></g><g
           transform="translate(913.3096,1081.7705)"
           id="g36"><path
             id="path38"
             style="fill:#c24c54;fill-opacity:1;fill-rule:nonzero;stroke:none"
             d="M 0,0 C 6.626,-0.842 12.368,3.672 13.505,9.801 L 13.446,9.792 c -3.28,-0.48 -6.583,1.207 -7.892,4.252 -1.443,3.355 -0.545,6.69 1.59,8.764 C 5.916,23.457 4.576,23.883 3.156,24.066 -4.778,25.06 -11.454,18.384 -10.46,10.45 -9.77,5.042 -5.407,0.68 0,0" /></g><g
           transform="translate(927.7324,563.748)"
           id="g40"><path
             id="path42"
             style="fill:#c24c54;fill-opacity:1;fill-rule:nonzero;stroke:none"
             d="m 0,0 14.097,165.86 c 0.156,1.834 1.69,3.244 3.531,3.244 h 124.657 c 1.851,0 3.39,-1.424 3.532,-3.27 l 3.692,-47.577 c 0.177,-2.28 -1.821,-4.128 -4.08,-3.776 l -81.981,12.8 c -2.148,0.335 -4.09,-1.326 -4.09,-3.501 v -21.364 c 0,-1.859 1.437,-3.403 3.292,-3.535 l 65.784,-4.684 c 2.158,-0.153 3.676,-2.189 3.207,-4.302 l -7.284,-32.78 c -0.38,-1.711 -1.954,-2.886 -3.703,-2.766 L 57.638,64.297 C 55.59,64.438 53.851,62.814 53.851,60.762 L 59.358,31.72 c 0,-2.157 1.911,-3.813 4.045,-3.508 l 87.734,12.537 c 2.419,0.346 4.453,-1.803 3.976,-4.199 l -9.347,-46.986 c -0.347,-1.747 -1.939,-2.964 -3.716,-2.843 L 3.29,-3.835 C 1.314,-3.701 -0.168,-1.974 0,0" /></g><g
           transform="translate(322.2656,586.3604)"
           id="g44"><path
             id="path46"
             style="fill:#c24c54;fill-opacity:1;fill-rule:nonzero;stroke:none"
             d="m 0,0 c 0.211,-2.076 2.161,-3.521 4.208,-3.12 12.855,2.52 25.71,5.044 38.565,7.576 1.965,0.382 3.289,2.157 3.099,4.135 -0.089,0.985 -0.564,1.907 -1.307,2.564 l -2.199,1.931 c -9.976,8.76 -19.938,17.509 -29.9,26.271 l -2.677,2.354 c -1.297,1.141 -1.583,3.05 -0.677,4.52 L 38.618,94.1 c 0.468,0.758 0.283,1.43 0.046,1.859 -0.238,0.432 -0.711,0.946 -1.61,0.952 L -5.929,97.222 C -8.038,97.237 -9.693,95.419 -9.48,93.32 Z m -57.873,143.222 c 0.096,1.895 1.667,3.379 3.564,3.365 l 91.836,-0.647 c 19.119,-0.143 35.778,-12.492 41.462,-30.729 l 4.352,-13.927 C 88.453,84.907 83.47,67.475 71.396,56.237 69.654,54.617 70.048,51.755 72.125,50.598 84.694,43.589 93.015,30.848 94.379,16.515 L 95.466,5.016 C 97.594,-17.479 82.493,-37.717 60.343,-42.069 L -64.024,-66.475 c -2.261,-0.444 -4.337,1.354 -4.222,3.656 z" /></g><g
           transform="translate(1142.6504,600.2021)"
           id="g48"><path
             id="path50"
             style="fill:#c24c54;fill-opacity:1;fill-rule:nonzero;stroke:none"
             d="m 0,0 c -0.116,-2.301 1.961,-4.099 4.222,-3.655 l 51.722,10.16 c -0.02,0.273 -0.096,1.349 -0.137,1.912 -0.013,0.178 -0.038,0.344 -0.079,0.518 -4.136,17.7 -7.386,42.451 -9.925,75.594 -0.021,0.264 -0.071,0.529 -0.15,0.782 l -0.598,1.922 c -0.458,1.473 -1.817,2.48 -3.359,2.491 L 7.924,89.957 C 6.026,89.97 4.456,88.486 4.36,86.592 Z m -39.656,133.219 c 0.094,1.895 1.667,3.379 3.564,3.365 l 4.046,-0.03 c 25.441,-0.19 50.864,-0.365 76.289,-0.539 l 4.365,-0.03 c 17.841,-0.134 33.385,-11.658 38.689,-28.674 l 4.253,-13.658 0.064,-0.89 c 2.477,-33.935 5.725,-59.213 9.657,-75.131 0.417,-1.715 0.573,-3.82 0.79,-6.736 0.106,-1.459 0.229,-3.13 0.403,-4.963 1.983,-20.981 -12.107,-39.866 -32.776,-43.93 L -45.003,-60.504 c -2.261,-0.443 -4.337,1.355 -4.222,3.655 z" /></g><g
           transform="translate(500.2144,438.585)"
           id="g52"><path
             id="path54"
             style="fill:#c24c54;fill-opacity:1;fill-rule:nonzero;stroke:none"
             d="m 0,0 c 0.813,4.181 12.141,58.813 60.213,74.276 5.686,1.828 36.067,10.888 66.137,-6.938 27.547,-16.331 35.744,-43.908 38.021,-54.984 0.458,-2.225 -1.286,-4.286 -3.558,-4.233 l -50.087,1.151 c -2,0.046 -3.521,1.738 -3.45,3.737 0.423,11.865 -5.153,22.027 -13.412,25.379 C 79.68,44.144 65.137,26.748 63.687,25.013 53.325,12.618 53.828,-2.513 54.233,-14.693 c 0.428,-12.862 0.921,-27.689 12.043,-38.097 2.654,-2.483 15.011,-13.221 27.588,-8.514 9.738,3.645 16.391,14.768 15.559,27.482 -0.132,2.032 1.395,3.785 3.431,3.837 15.316,0.382 30.632,0.765 45.949,1.148 2.023,0.051 3.688,-1.596 3.632,-3.619 -0.305,-10.875 -3.327,-39.493 -26.899,-61.019 -24.421,-22.298 -59.64,-26.705 -86.735,-15.491 C 5.926,-91.223 -7.425,-38.17 0,0" /></g><g
           transform="translate(526.8022,595.7197)"
           id="g56"><path
             id="path58"
             style="fill:#c24c54;fill-opacity:1;fill-rule:nonzero;stroke:none"
             d="m 0,0 c -10.17,-3.442 -21.781,3.08 -27.587,8.514 -11.123,10.409 -11.616,25.235 -12.044,38.097 -0.405,12.18 -0.909,27.311 9.454,39.706 6.038,7.223 19,16.956 30.177,13.374 C 15.213,94.815 17.198,68.384 18.038,57.201 18.39,52.519 21.344,7.224 0,0 m 32.486,128.642 c -28.716,18.387 -63.074,7.922 -66.136,6.938 -48.073,-15.463 -59.401,-70.096 -60.214,-74.276 -7.425,-38.17 5.926,-91.222 48.801,-108.966 30.044,-12.435 65.136,-3.45 86.735,15.491 45.912,40.266 37.351,131.014 -9.186,160.813" /></g><g
           transform="translate(707.1982,595.7197)"
           id="g60"><path
             id="path62"
             style="fill:#c24c54;fill-opacity:1;fill-rule:nonzero;stroke:none"
             d="m 0,0 c -10.17,-3.442 -21.78,3.08 -27.587,8.514 -11.123,10.409 -11.616,25.235 -12.043,38.097 -0.406,12.18 -0.909,27.311 9.453,39.706 6.039,7.223 19,16.956 30.177,13.374 C 15.213,94.815 17.198,68.384 18.038,57.201 18.39,52.519 21.344,7.224 0,0 m 32.486,128.642 c -28.716,18.387 -63.074,7.922 -66.136,6.938 -48.073,-15.463 -59.4,-70.096 -60.214,-74.276 -7.425,-38.17 5.926,-91.222 48.801,-108.966 30.045,-12.435 65.137,-3.45 86.735,15.491 45.913,40.266 37.351,131.014 -9.186,160.813" /></g><g
           transform="translate(766.5625,471.3672)"
           id="g64"><path
             id="path66"
             style="fill:#c24c54;fill-opacity:1;fill-rule:nonzero;stroke:none"
             d="m 0,0 -22.64,-62.478 c -0.916,-2.53 1.211,-5.119 3.87,-4.71 l 54.121,8.324 c 2.467,0.379 3.78,3.124 2.525,5.283 C 27.382,-35.53 16.889,-17.479 6.396,0.573 4.884,3.174 1.024,2.827 0,0 m 42.304,-134.506 c 1.012,11.944 2.024,23.89 3.037,35.834 0.184,2.179 -1.63,4.004 -3.81,3.832 -24.487,-1.929 -48.975,-3.857 -73.462,-5.786 -1.716,-0.135 -3.086,-1.483 -3.25,-3.196 l -4.292,-45.014 c -0.192,-2.007 -2.016,-3.449 -4.012,-3.174 -18.787,2.591 -37.575,5.183 -56.362,7.774 -2.338,0.322 -3.713,2.798 -2.752,4.953 26.973,60.511 53.946,121.021 80.919,181.532 0.57,1.278 1.838,2.101 3.237,2.101 h 42.182 c 1.333,0 2.554,-0.748 3.158,-1.936 l 89.078,-174.961 c 1.193,-2.345 -0.494,-5.126 -3.124,-5.151 l -66.982,-0.651 c -2.089,-0.019 -3.741,1.762 -3.565,3.843" /></g><g
           transform="translate(892.749,321.6484)"
           id="g68"><path
             id="path70"
             style="fill:#c24c54;fill-opacity:1;fill-rule:nonzero;stroke:none"
             d="m 0,0 c 4.553,51.656 9.104,103.312 13.656,154.968 0.244,2.765 -2.643,4.724 -5.123,3.475 -11.381,-5.73 -22.762,-11.46 -34.144,-17.19 -2.19,-1.103 -4.81,0.298 -5.11,2.73 -1.914,15.523 -3.829,31.045 -5.743,46.568 -0.239,1.942 1.142,3.712 3.085,3.95 44.058,5.417 88.116,10.834 132.174,16.251 2.119,0.261 3.986,-1.398 3.976,-3.534 -0.07,-14.129 -0.138,-28.258 -0.208,-42.387 -0.009,-1.95 -1.592,-3.526 -3.542,-3.526 H 55.38 c -2.011,0 -3.619,-1.672 -3.541,-3.682 L 57.518,11.598 C 57.584,9.9 56.437,8.396 54.782,8.01 37.967,4.086 21.151,0.162 4.335,-3.762 1.986,-4.31 -0.212,-2.402 0,0" /></g><g
           transform="translate(603.7251,1010.3618)"
           id="g72"><path
             id="path74"
             style="fill:#c24c54;fill-opacity:1;fill-rule:nonzero;stroke:none"
             d="m 0,0 c -1.675,8.412 -3.302,16.83 -4.88,25.253 -0.244,1.301 -1.992,1.91 -3.231,1.127 -11.888,-7.569 -24.155,-14.762 -36.563,-21.445 -0.834,-0.454 -1.172,-1.336 -0.805,-2.117 4.412,-9.396 6.694,-14.077 11.412,-23.401 0.377,-0.746 0.085,-1.603 -0.717,-2.081 -9.042,-5.398 -18.285,-10.628 -27.722,-15.68 -1.295,-0.693 -3.107,-0.114 -3.466,1.104 -8.709,29.519 -16.421,59.559 -23.007,89.634 -0.228,1.038 0.615,2.007 1.792,2.065 10.707,0.532 21.358,1.326 31.944,2.377 1.258,0.125 2.328,-0.842 2.183,-1.977 -1.016,-7.943 -2.058,-15.885 -3.125,-23.824 -0.192,-1.431 1.576,-2.469 3.025,-1.772 14.741,7.078 21.917,10.822 35.856,18.665 0.829,0.467 1.151,1.403 0.762,2.201 -4.455,9.14 -6.606,13.729 -10.76,22.941 -0.353,0.784 -0.053,1.69 0.711,2.158 11.207,6.854 16.661,10.407 27.257,17.735 1.044,0.723 2.515,0.233 2.868,-0.944 C 12.24,62.992 21.908,34.043 32.364,5.596 32.729,4.605 31.982,3.534 30.747,3.302 21.36,1.539 11.922,-0.039 2.438,-1.426 1.281,-1.595 0.19,-0.957 0,0" /></g><g
           transform="translate(649.5967,1025.3921)"
           id="g76"><path
             id="path78"
             style="fill:#c24c54;fill-opacity:1;fill-rule:nonzero;stroke:none"
             d="m 0,0 c -12.452,25.131 -24.039,50.498 -34.865,76.376 -0.348,0.854 0.051,1.823 0.914,2.231 19.12,9.407 37.617,19.431 55.918,30.343 0.792,0.488 1.827,0.294 2.381,-0.447 5.708,-7.642 8.637,-11.431 14.643,-18.939 0.72,-0.899 0.363,-2.22 -0.734,-2.697 C 24.97,81.036 11.32,75.678 -2.385,70.909 c -1.087,-0.383 -1.572,-1.58 -1.017,-2.525 2.181,-3.715 3.285,-5.567 5.519,-9.263 0.486,-0.804 1.574,-1.112 2.488,-0.703 12.967,5.802 19.326,8.871 31.774,15.315 1.022,0.529 2.286,0.1 2.674,-0.91 2.416,-6.264 3.639,-9.391 6.12,-15.637 C 45.497,56.371 45.109,55.441 44.258,55 31.339,49.577 24.775,47.026 11.459,42.271 c -1.032,-0.465 -1.438,-1.605 -0.88,-2.487 4.235,-4.422 6.385,-6.617 10.749,-10.971 0.608,-0.916 2.023,-1.113 2.989,-0.416 13.013,9.655 25.596,19.483 38.104,29.781 1.006,0.851 2.592,0.583 3.108,-0.528 4.042,-8.706 6.099,-13.047 10.288,-21.704 0.389,-0.804 0.02,-1.776 -0.865,-2.266 C 51.35,21.005 27.46,9.592 2.777,-0.842 1.708,-1.278 0.455,-0.897 0,0" /></g><g
           transform="translate(479.1646,958.8647)"
           id="g80"><path
             id="path82"
             style="fill:#c24c54;fill-opacity:1;fill-rule:nonzero;stroke:none"
             d="m 0,0 c -6.845,25.521 -12.939,51.493 -18.104,77.395 -0.275,1.375 -2.189,2.061 -3.416,1.208 -5.629,-3.917 -11.353,-7.766 -17.168,-11.543 -1.119,-0.727 -2.84,-0.242 -3.348,0.943 -3.237,7.559 -6.337,15.137 -9.299,22.73 -0.371,0.95 0.211,1.922 1.272,2.187 23.65,5.909 47.221,13.089 70.126,21.429 1.075,0.391 2.326,-0.151 2.661,-1.18 C 24.937,106.36 27.24,99.556 29.633,92.767 29.964,91.83 29.378,90.854 28.317,90.586 18.828,88.19 14.031,87.075 4.343,85.02 3.227,84.783 2.596,83.783 2.958,82.815 12.091,59.125 22.003,35.949 32.792,12.971 33.179,12.167 32.799,11.282 31.882,10.865 22.556,6.623 13.063,2.554 3.407,-1.332 2.058,-1.875 0.32,-1.193 0,0" /></g><g
           transform="translate(820.6875,530.5596)"
           id="g84"><path
             id="path86"
             style="fill:#c24c54;fill-opacity:1;fill-rule:nonzero;stroke:none"
             d="m 0,0 c 4.553,51.656 9.104,103.312 13.656,154.968 0.244,2.765 -2.643,4.724 -5.123,3.475 -11.381,-5.73 -22.762,-11.461 -34.144,-17.191 -2.19,-1.102 -4.81,0.299 -5.111,2.731 l -5.742,46.568 c -0.239,1.942 1.142,3.712 3.085,3.95 44.058,5.417 88.116,10.834 132.174,16.251 2.119,0.261 3.986,-1.398 3.976,-3.534 -0.07,-14.129 -0.138,-28.258 -0.208,-42.388 -0.009,-1.95 -1.592,-3.525 -3.542,-3.525 H 55.38 c -2.011,0 -3.619,-1.672 -3.541,-3.682 L 57.518,11.598 C 57.584,9.9 56.437,8.396 54.782,8.01 37.967,4.086 21.15,0.162 4.335,-3.762 1.986,-4.31 -0.212,-2.402 0,0" /></g></g></g><text
       id="text90"
       style="font-variant:normal;font-weight:bold;font-stretch:normal;font-size:25px;font-family:Montserrat;-inkscape-font-specification:Montserrat-Bold;writing-mode:lr-tb;fill:#c24c54;fill-opacity:1;fill-rule:nonzero;stroke:none"
       transform="matrix(1,0,0,-1,1253.6772,30)"><tspan
         id="tspan88"
         y="0"
         x="0 17.525 36.875 56.349998 76.025002 94.474998 114.15 131.72501 147.14999 155.77499 171.95 190.39999">anhdodes.com</tspan></text>
</g></svg>